:SAMPLES-PER-SECOND 30
:FRAME-RANGE 1-2775
:FULLY-SPECIFIED
:DEGREES
347
root  -56.1831 39.0718 16.3376 -178.566 2.75235 176.302
RightUpLeg  -20.6672 -12.5398 -8.05369
RightLeg  47.785 -1.94982 -2.62488
RightFoot  -4.30386 -1.13255 17.8042
RightToes  -5.28216e-011 1.2921e-014 -6.02303e-014
Spine  8.17786 -0.373213 -6.74814
Spine1  -0.969529 -0.613074 -2.52902
HEad  0.522237 25.2002 -4.41222
LeftShoulder1  1.97833 -2.39089 -27.4636
LeftArm  1.63441 -47.4386 -30.5271
LeftForeArm  -11.0622 -19.5336 -7.99361
LeftHand  0.231974 0.643171 -5.83247
RightShoulder  8.5461 11.8083 48.8819
RightArm  17.8438 0.157602 16.2852
RightForeArm  7.3306 11.2798 13.398
RightHand  0.283621 3.83875 3.30276
LeftUpLeg  -6.92348 9.52798 0.793754
LeftLeg  14.3748 7.03409 -2.68856
LeftFoot  -9.19591 0.171379 -6.20759
LeftToes  -2.158e-010 -1.26819e-010 -1.05346e-011
348
root  -56.0502 39.1569 16.1433 -178.282 2.86307 177.027
RightUpLeg  -22.2171 -12.1357 -7.99598
RightLeg  45.9825 -2.53349 -3.11382
RightFoot  -4.67976 -1.04943 17.3566
RightToes  -5.28216e-011 1.2921e-014 -6.02303e-014
Spine  8.37969 -0.60117 -6.66548
Spine1  -1.14517 -0.862624 -2.07378
HEad  0.222888 26.6719 -5.09657
LeftShoulder1  1.98501 -2.58397 -26.4786
LeftArm  -3.97401 -50.1728 -30.1421
LeftForeArm  -7.69226 -17.287 -9.59709
LeftHand  0.228389 0.866308 -6.05406
RightShoulder  8.87799 12.4269 48.8038
RightArm  19.5243 0.594626 16.6806
RightForeArm  5.14711 13.5578 11.9687
RightHand  0.273588 4.00919 3.10722
LeftUpLeg  -6.46553 9.68485 1.67363
LeftLeg  13.5713 6.80219 -2.54513
LeftFoot  -9.04515 0.185969 -6.57234
LeftToes  -2.158e-010 -1.26819e-010 -1.05346e-011
349
root  -55.9026 39.2967 15.9096 -177.811 2.98856 177.834
RightUpLeg  -22.7205 -11.9278 -7.74484
RightLeg  40.9115 -4.39218 -4.34139
RightFoot  -4.87678 -0.956161 16.238
RightToes  -5.28216e-011 1.2921e-014 -6.02303e-014
Spine  8.36948 -0.820068 -6.23532
Spine1  -1.27083 -1.06458 -1.48188
HEad  -0.48968 28.151 -5.58075
LeftShoulder1  1.98639 -2.69968 -25.8713
LeftArm  -7.61374 -51.8522 -29.8911
LeftForeArm  -5.41817 -15.6818 -10.6405
LeftHand  0.238271 0.912042 -6.38258
RightShoulder  9.04346 12.7961 48.5833
RightArm  22.4688 0.749427 17.0886
RightForeArm  1.2766 16.185 10.1515
RightHand  0.291362 4.06583 3.30258
LeftUpLeg  -5.66033 9.8943 2.68392
LeftLeg  11.8122 6.60702 -2.62448
LeftFoot  -8.46551 0.221326 -6.79267
LeftToes  -2.158e-010 -1.26819e-010 -1.05346e-011
350
root  -55.7226 39.4244 15.6435 -177.211 3.14284 178.47
RightUpLeg  -22.2517 -11.7276 -7.50955
RightLeg  33.2991 -7.32759 -5.39059
RightFoot  -4.75613 -0.914008 15.2376
RightToes  -5.28216e-011 1.2921e-014 -6.02303e-014
Spine  8.19434 -1.01484 -5.75279
Spine1  -1.3085 -1.21162 -1.03183
HEad  -1.24637 29.3563 -5.85912
LeftShoulder1  2.00009 -2.78198 -25.6625
LeftArm  -8.77359 -52.6155 -29.6049
LeftForeArm  -4.85998 -15.1801 -10.9549
LeftHand  0.256554 0.822091 -6.71042
RightShoulder  9.05306 12.8264 48.544
RightArm  24.8207 1.01536 17.413
RightForeArm  -1.41888 18.1933 8.57254
RightHand  0.295329 4.05696 3.35497
LeftUpLeg  -4.86802 10.2177 3.63429
LeftLeg  9.90532 6.53518 -2.87224
LeftFoot  -7.98396 0.262539 -7.32067
LeftToes  -2.158e-010 -1.26819e-010 -1.05346e-011
351
root  -55.4968 39.5007 15.327 -176.706 3.34303 178.826
RightUpLeg  -20.908 -11.8862 -7.27163
RightLeg  24.4216 -10.4397 -5.34749
RightFoot  -4.4997 -0.87597 14.0731
RightToes  -5.28216e-011 1.2921e-014 -6.02303e-014
Spine  8.06631 -1.17156 -5.35842
Spine1  -1.30109 -1.32908 -0.763513
HEad  -2.02184 30.5065 -6.17061
LeftShoulder1  2.00949 -2.77118 -25.8754
LeftArm  -7.81529 -52.7352 -29.0742
LeftForeArm  -5.74027 -15.4888 -10.8369
LeftHand  0.255357 0.871681 -6.66172
RightShoulder  9.06463 12.8202 48.6254
RightArm  26.6805 0.972862 17.5808
RightForeArm  -3.09057 19.8176 7.24036
RightHand  0.26915 3.90554 3.09383
LeftUpLeg  -4.09255 10.4379 4.38306
LeftLeg  8.42393 6.42046 -3.0448
LeftFoot  -7.61999 0.293767 -7.6311
LeftToes  -2.158e-010 -1.26819e-010 -1.05346e-011
352
root  -55.2008 39.5061 14.9286 -176.324 3.65475 178.846
RightUpLeg  -19.4558 -13.507 -6.6979
RightLeg  16.4162 -10.8178 -3.76832
RightFoot  -4.15048 -0.853138 13.0726
RightToes  -5.28216e-011 1.2921e-014 -6.02303e-014
Spine  7.7863 -1.22246 -4.97792
Spine1  -1.05034 -1.28637 -0.946244
HEad  -2.66859 31.3721 -6.35216
LeftShoulder1  2.02741 -2.74316 -26.3222
LeftArm  -7.0341 -52.3975 -28.52
LeftForeArm  -6.39146 -15.9205 -10.5836
LeftHand  0.249408 0.893025 -6.61676
RightShoulder  9.00869 12.669 48.7792
RightArm  27.4545 0.803995 17.6599
RightForeArm  -3.31628 20.6581 6.55741
RightHand  0.254541 3.91398 2.90838
LeftUpLeg  -3.35936 10.5727 4.8911
LeftLeg  7.62934 6.36936 -3.06968
LeftFoot  -7.80776 0.305073 -8.36514
LeftToes  -2.158e-010 -1.26819e-010 -1.05346e-011
